<svg width="49" height="52" viewBox="0 0 49 52" fill="none" xmlns="http://www.w3.org/2000/svg">
<path d="M21.0449 0.0600306C25.862 -0.0109464 30.6799 -0.0189839 35.4973 0.0359185C36.7048 0.0475782 37.9119 0.0466344 39.1194 0.033088C39.5009 0.0314278 40.742 0.00995773 41.0808 0.0559173C44.7625 0.277112 47.7658 3.50145 48.3156 7.03653C48.4099 7.64279 48.4563 8.26634 48.4646 8.87913C47.968 9.40891 47.4217 9.89145 46.9111 10.4137L41.9091 15.4781C41.2922 16.0946 40.6797 16.715 40.0711 17.3394C39.7911 17.6239 39.2938 18.1455 38.9919 18.3873C38.5157 18.9417 37.8414 19.5014 37.3308 20.0806C37.5723 20.2704 37.9029 20.6106 38.1308 20.8342C38.7066 21.4029 39.276 21.9781 39.8386 22.5597L42.2155 24.9724C42.5664 25.3264 42.9996 25.7245 43.3332 26.0784C45.7765 28.2915 47.2941 31.1306 47.9081 34.3598C48.6035 38.4554 48.0069 42.1688 45.5761 45.5954C43.4437 48.5952 40.2084 50.6268 36.5799 51.2441C34.6615 51.5682 32.6541 51.4482 30.7131 51.4667C30.4701 51.4694 30.1618 51.4716 29.921 51.4528C29.2841 51.4962 28.2562 51.4641 27.5811 51.4637L23.6711 51.4803L11.6799 51.4867C11.2166 51.5131 10.5993 51.4969 10.1187 51.4977C9.21127 51.503 8.30381 51.4969 7.39649 51.4803C7.3651 51.4826 7.3408 51.4856 7.30786 51.4822C3.25466 51.0837 -0.152674 46.8323 0.0052806 42.7967C0.159499 42.6261 0.362319 42.4382 0.537593 42.288C1.61697 41.3628 2.54636 40.2663 3.58725 39.3063C3.69672 39.1207 4.43947 38.426 4.63528 38.2169C6.11101 36.6684 7.60977 35.1424 9.13097 33.6387C9.76087 33.0048 10.5781 32.2282 11.1635 31.5721C10.9895 31.3219 10.4591 30.8038 10.2184 30.5597C9.012 29.3148 7.65901 27.996 6.43296 26.7818C4.31525 24.685 2.58459 22.9941 1.45857 20.1596C1.08213 19.212 0.808109 18.4718 0.618986 17.4453C0.375451 16.5111 0.272927 14.6209 0.304699 13.663C0.410543 9.95605 1.98669 6.4435 4.68546 3.90007C6.9795 1.71725 9.94776 0.379634 13.1025 0.106858C14.0211 0.0229761 14.9706 0.0468988 15.894 0.0493892C16.5103 0.0510872 17.1479 0.0364093 17.7601 0.0579175C18.8197 0.0399563 19.9873 0.0348623 21.0449 0.0600306Z" fill="#070B55"/>
<path d="M21.0446 0.0600306C25.8617 -0.0109464 30.6796 -0.0189839 35.4971 0.0359185C36.7046 0.0475782 37.9117 0.0466344 39.1192 0.033088C39.5007 0.0314278 40.7417 0.00995773 41.0806 0.0559173C38.6886 2.5823 36.159 4.9865 33.7478 7.49601C33.0799 8.1914 32.4108 8.86823 31.7192 9.53989C31.6064 9.65747 30.9981 10.3018 30.9079 10.3659C30.8464 10.3247 30.8279 10.3104 30.7487 10.3088C29.3412 10.281 27.9296 10.2888 26.5228 10.294L19.6785 10.3076L16.4313 10.3031C14.5907 10.2868 12.9039 10.0485 11.7449 11.7943C11.1639 12.6694 11.0493 13.681 11.2608 14.6958C11.3752 15.251 11.6009 15.7772 11.9246 16.2425C12.3797 16.8999 13.7135 18.2058 14.3301 18.8146C15.5038 19.9693 16.6711 21.1305 17.8321 22.298C18.2629 22.7385 18.696 23.1767 19.1313 23.6127C18.613 23.8587 17.9097 24.7047 17.4776 25.1385L13.9242 28.7598C13.6216 29.0703 12.2516 30.3955 12.079 30.6521C11.8041 30.8461 11.4282 31.3657 11.1633 31.5721C10.9893 31.3219 10.4588 30.8038 10.2182 30.5597C9.01175 29.3148 7.65877 27.996 6.43271 26.7818C4.31501 24.685 2.58434 22.9941 1.45832 20.1596C1.08189 19.212 0.807864 18.4718 0.618741 17.4453C0.375206 16.5111 0.272683 14.6209 0.304455 13.663C0.410298 9.95605 1.98645 6.4435 4.68522 3.90007C6.97925 1.71725 9.94752 0.379634 13.1023 0.106858C14.0209 0.0229761 14.9703 0.0468988 15.8938 0.0493892C16.51 0.0510872 17.1476 0.0364093 17.7598 0.0579175C18.8194 0.0399563 19.987 0.0348623 21.0446 0.0600306Z" fill="url(#paint0_linear_28_37)"/>
<path d="M21.0449 0.0600306C25.862 -0.0109464 30.6799 -0.0189839 35.4974 0.0359185C36.7049 0.0475782 37.912 0.0466344 39.1195 0.033088C39.501 0.0314278 40.7421 0.00995773 41.0809 0.0559173C38.6889 2.5823 36.1593 4.9865 33.7481 7.49601C33.0802 8.1914 32.4111 8.86823 31.7195 9.53989L31.6063 9.4923C31.3267 9.14244 31.498 8.74171 31.5576 8.38441C31.7184 7.42333 32.3719 6.87261 33.0424 6.23997C33.1907 6.0999 33.3753 6.04534 33.5039 5.90138C33.7375 5.63982 33.8911 5.28904 34.0982 5.00683C34.3514 4.69727 34.6114 4.44845 34.8559 4.11606C34.8495 4.06885 34.8427 4.02165 34.8363 3.97444C35.5665 3.18422 36.5366 2.32575 37.146 1.45923C37.269 1.28483 37.5664 0.334089 37.5222 0.166929C37.3426 0.115838 35.1959 0.117348 34.8393 0.111084C31.667 0.080067 28.4944 0.0711999 25.3217 0.0844444L22.693 0.0803311C22.2049 0.0796519 21.5712 0.0950466 21.0925 0.0635013L21.0449 0.0600306Z" fill="url(#paint1_linear_28_37)"/>
<path d="M17.8327 22.2981C18.2635 22.7386 18.6966 23.1768 19.1319 23.6128C18.6135 23.8588 17.9103 24.7047 17.4782 25.1386L13.9247 28.7599C13.6222 29.0704 12.2521 30.3956 12.0796 30.6522C11.8047 30.8462 11.4288 31.3657 11.1638 31.5722C10.9898 31.322 10.4594 30.8039 10.2188 30.5598C10.2754 30.1877 11.1937 29.3613 11.3611 28.9957C11.7152 28.2244 12.303 27.5173 12.8881 26.8966C14.2616 25.4385 15.8502 24.112 17.391 22.8318C17.5843 22.6712 17.6017 22.4785 17.8327 22.2981Z" fill="#035885" fill-opacity="0.32"/>
<path d="M37.3308 20.0806C37.5723 20.2703 37.9029 20.6105 38.1308 20.8341C38.7066 21.4029 39.276 21.9781 39.8386 22.5596L42.2155 24.9724C42.5664 25.3263 42.9996 25.7244 43.3332 26.0784C45.7764 28.2914 47.2941 31.1305 47.908 34.3598C48.6035 38.4554 48.0069 42.1687 45.5761 45.5953C43.4437 48.5952 40.2084 50.6267 36.5799 51.2441C34.6615 51.5682 32.6541 51.4482 30.713 51.4667C30.47 51.4693 30.1618 51.4716 29.921 51.4527C29.2841 51.4961 28.2562 51.464 27.5811 51.4637L23.6711 51.4803L11.6799 51.4867C11.2166 51.5131 10.5993 51.4969 10.1187 51.4976C9.21126 51.5029 8.3038 51.4969 7.39648 51.4803C8.52341 50.3988 9.60332 49.2196 10.7272 48.1306C11.0773 47.7914 11.4569 47.4043 11.7808 47.0394C11.8919 46.9666 12.9923 45.8372 13.1466 45.681C14.3373 44.4645 15.5386 43.2585 16.7504 42.0631C17.0852 41.7333 17.4608 41.2846 17.7914 40.9899C18.009 41.2114 18.7896 41.1537 19.1416 41.1563L27.88 41.1552L30.2602 41.1582C30.5191 41.1586 31.2874 41.1477 31.5236 41.1805L33.0744 41.1862C33.442 41.1865 33.7884 41.1748 34.1548 41.1612C37.1399 41.0503 38.1693 37.5354 36.6214 35.302C36.1441 34.613 35.4732 34.0677 34.9068 33.436C33.0922 31.5958 31.2093 29.7819 29.4286 27.9134C29.8346 27.4821 30.647 26.8108 31.1436 26.3191L34.6072 22.823C35.5072 21.9188 36.4599 21.0051 37.3308 20.0806Z" fill="url(#paint2_linear_28_37)"/>
<path d="M37.33 20.0806C37.5715 20.2703 37.902 20.6105 38.1299 20.8341C38.7058 21.4029 39.2752 21.9781 39.8378 22.5596L42.2146 24.9724C42.5656 25.3263 42.9988 25.7244 43.3323 26.0784C42.5946 26.7519 42.0482 27.5017 41.2411 28.0862C40.9977 28.2884 40.7608 28.4937 40.5313 28.7137C40.1812 29.0491 39.6004 29.3001 39.2472 29.6012C38.3511 30.3645 37.3836 30.972 36.4398 31.6652C36.0331 31.9641 35.6267 32.412 35.2757 32.7731C35.1486 32.9119 34.9037 33.0398 34.8041 33.1896C34.858 33.2451 34.9052 33.3025 34.9497 33.3659L34.9059 33.436C33.0913 31.5958 31.2084 29.7819 29.4277 27.9134C29.8338 27.4821 30.6462 26.8108 31.1427 26.3191L34.6063 22.823C35.5063 21.9188 36.4591 21.0051 37.33 20.0806Z" fill="url(#paint3_linear_28_37)"/>
<path d="M17.7914 40.99C18.009 41.2115 18.7897 41.1538 19.1416 41.1564L27.88 41.1553L30.2602 41.1583C30.5191 41.1587 31.2874 41.1477 31.5236 41.1805C30.561 41.2292 29.2784 41.1919 28.2902 41.1911L21.7797 41.2002C21.0327 41.2062 20.2858 41.2202 19.5392 41.2421C19.3343 41.2466 18.8836 41.2315 18.7172 41.2587C18.665 41.3285 18.6224 41.3843 18.5659 41.4515C18.4554 41.4594 18.4619 41.4541 18.3624 41.4009C18.0588 41.7549 17.6837 41.7107 17.3973 42.1488C16.9577 42.8216 16.7719 43.6449 16.218 44.246C15.6087 44.9064 14.7174 45.2426 14.1466 45.9282C13.8217 46.3184 13.6322 46.9342 13.4033 47.384C13.2359 47.6719 13.0573 47.9673 12.8747 48.2462C12.4066 48.9605 11.5493 49.3529 11.102 50.0834C11.0518 50.1653 10.8438 50.8305 10.7896 50.9619C10.7536 51.0494 10.6768 51.3007 10.688 51.3807C10.8222 51.4694 11.3486 51.4011 11.6799 51.4867C11.2166 51.5131 10.5993 51.4969 10.1187 51.4977C9.21126 51.503 8.3038 51.4969 7.39648 51.4803C8.52341 50.3989 9.60332 49.2197 10.7272 48.1307C11.0773 47.7915 11.4569 47.4043 11.7808 47.0394C11.8919 46.9666 12.9923 45.8373 13.1467 45.681C14.3373 44.4645 15.5386 43.2585 16.7504 42.0631C17.0852 41.7333 17.4608 41.2847 17.7914 40.99Z" fill="#035885" fill-opacity="0.32"/>
<path d="M41.0816 0.0559082C44.7633 0.277103 47.7666 3.50144 48.3163 7.03652C48.4107 7.64278 48.4571 8.26633 48.4654 8.87912C47.9688 9.4089 47.4224 9.89144 46.9119 10.4137L41.9099 15.4781C41.2929 16.0945 40.6805 16.715 40.0718 17.3394C39.7919 17.6239 39.2945 18.1455 38.9927 18.3873C38.5164 18.9417 37.8421 19.5014 37.3316 20.0806C36.4607 21.0052 35.5079 21.9189 34.608 22.823L31.1444 26.3192C30.6478 26.8108 29.8354 27.4821 29.4294 27.9134C28.9742 27.4683 28.2969 26.791 27.8211 26.3173L25.3371 23.7972C24.713 23.157 24.0632 22.5344 23.4419 21.8913C23.1774 21.6175 22.851 21.3188 22.6057 21.034C22.4199 20.9005 21.8083 20.3177 21.6276 20.1406L21.5207 20.0666C21.5002 20.0295 21.4987 20.0049 21.4883 19.9621C21.6351 19.7276 22.3396 19.0297 22.5526 18.8129L24.2096 17.1187L28.4445 12.848C29.2724 12.0151 30.1033 11.2218 30.9089 10.3659C30.9991 10.3018 31.6074 9.65746 31.7202 9.53988C32.4118 8.86822 33.0809 8.19139 33.7488 7.496C36.16 4.98649 38.6896 2.58229 41.0816 0.0559082Z" fill="url(#paint4_linear_28_37)"/>
<path d="M19.1316 23.6125C21.2569 25.7274 23.3635 27.8612 25.4511 30.0139C25.9216 30.5048 26.5053 31.0738 26.9532 31.5644C26.9744 31.6546 26.9963 31.6617 26.9182 31.7591C26.6899 32.044 26.3801 32.3519 26.1261 32.6145C25.499 33.2639 24.8666 33.9088 24.2292 34.5487L17.7914 40.9899C17.4608 41.2846 17.0853 41.7332 16.7504 42.063C15.5386 43.2584 14.3373 44.4644 13.1467 45.6809C12.9923 45.8371 11.8919 46.9665 11.7808 47.0393C11.4569 47.4042 11.0773 47.7913 10.7272 48.1306C9.60333 49.2196 8.52342 50.3987 7.39649 51.4802C7.3651 51.4825 7.3408 51.4855 7.30786 51.4821C3.25466 51.0836 -0.152674 46.8322 0.0052806 42.7965C0.159499 42.626 0.362319 42.4381 0.537593 42.2879C1.61697 41.3627 2.54636 40.2661 3.58725 39.3062C3.69672 39.1205 4.43947 38.4259 4.63528 38.2168C6.11101 36.6682 7.60977 35.1423 9.13097 33.6386C9.76087 33.0047 10.5781 32.2281 11.1635 31.5719C11.4284 31.3655 11.8043 30.8459 12.0792 30.652C12.2518 30.3954 13.6218 29.0702 13.9244 28.7596L17.4778 25.1383C19.717 23.0281 11.2883 31.4612 19.1316 23.6125Z" fill="url(#paint5_linear_28_37)"/>
<path d="M21.3457 20.0193L27.2528 14.0297C31.702 9.51833 38.966 9.46795 43.4773 13.9171L29.5142 28.0753L21.3457 20.0193Z" fill="url(#paint6_linear_28_37)"/>
<path d="M27.252 31.5386L21.3427 37.5261C16.8919 42.0358 9.62791 42.0836 5.11816 37.6328L19.0863 23.4797L27.252 31.5386Z" fill="url(#paint7_linear_28_37)"/>
<defs>
<linearGradient id="paint0_linear_28_37" x1="24.8414" y1="16.2698" x2="12.6504" y2="4.06512" gradientUnits="userSpaceOnUse">
<stop stop-color="#00618B"/>
<stop offset="1" stop-color="#14F4E3"/>
</linearGradient>
<linearGradient id="paint1_linear_28_37" x1="37.0124" y1="5.36859" x2="34.6677" y2="3.65648" gradientUnits="userSpaceOnUse">
<stop stop-color="#074F83"/>
<stop offset="1" stop-color="#03648E"/>
</linearGradient>
<linearGradient id="paint2_linear_28_37" x1="24.0379" y1="35.7061" x2="34.8826" y2="46.987" gradientUnits="userSpaceOnUse">
<stop stop-color="#015B86"/>
<stop offset="1" stop-color="#0EEDDE"/>
</linearGradient>
<linearGradient id="paint3_linear_28_37" x1="33.4007" y1="23.6247" x2="39.0551" y2="30.054" gradientUnits="userSpaceOnUse">
<stop stop-color="#014B7E"/>
<stop offset="1" stop-color="#059DAC" stop-opacity="0.84"/>
</linearGradient>
<linearGradient id="paint4_linear_28_37" x1="28.2898" y1="24.2389" x2="44.0518" y2="0.98376" gradientUnits="userSpaceOnUse">
<stop stop-color="#00B6B2"/>
<stop offset="1" stop-color="#27FFFB"/>
</linearGradient>
<linearGradient id="paint5_linear_28_37" x1="19.1504" y1="27.7069" x2="9.21632" y2="47.13" gradientUnits="userSpaceOnUse">
<stop stop-color="#00A7AE"/>
<stop offset="1" stop-color="#1FFFF0"/>
</linearGradient>
<linearGradient id="paint6_linear_28_37" x1="39.3931" y1="9.88916" x2="25.4299" y2="24.0473" gradientUnits="userSpaceOnUse">
<stop stop-color="#14E7E0"/>
<stop offset="1" stop-color="#044C84"/>
</linearGradient>
<linearGradient id="paint7_linear_28_37" x1="9.20098" y1="41.6623" x2="23.1691" y2="27.5091" gradientUnits="userSpaceOnUse">
<stop stop-color="#14E7E0"/>
<stop offset="1" stop-color="#044C84"/>
</linearGradient>
</defs>
</svg>
